<svg xmlns="http://www.w3.org/2000/svg" viewBox="0 0 24 24" role="img" aria-label="Badgical spark">
    <defs>
        <linearGradient id="spark-fill" x1="3" x2="21" y1="21" y2="3" gradientUnits="userSpaceOnUse">
            <stop stop-color="#5968c9" />
            <stop offset="0.52" stop-color="#9972d3" />
            <stop offset="1" stop-color="#dbdaec" />
        </linearGradient>
    </defs>
    <path fill="url(#spark-fill)" d="M11.1 1.9c.25-.72 1.27-.72 1.52 0l1.73 4.94a4.8 4.8 0 0 0 2.93 2.93l4.94 1.73c.72.25.72 1.27 0 1.52l-4.94 1.73a4.8 4.8 0 0 0-2.93 2.93l-1.73 4.94c-.25.72-1.27.72-1.52 0l-1.73-4.94a4.8 4.8 0 0 0-2.93-2.93L1.5 13.02c-.72-.25-.72-1.27 0-1.52l4.94-1.73a4.8 4.8 0 0 0 2.93-2.93L11.1 1.9Z" />
    <path fill="#ffffff" fill-opacity="0.82" d="m12 6.4 1.1 3.1a2.9 2.9 0 0 0 1.77 1.77L18 12.36l-3.13 1.1a2.9 2.9 0 0 0-1.77 1.77L12 18.35l-1.1-3.12a2.9 2.9 0 0 0-1.77-1.77L6 12.36l3.13-1.1A2.9 2.9 0 0 0 10.9 9.5L12 6.4Z" />
</svg>
