<svg xmlns="http://www.w3.org/2000/svg" viewBox="0 0 32 32" role="img" aria-label="Badgical spark">
    <defs>
        <linearGradient id="badge-base" x1="5" x2="28" y1="28" y2="18" gradientUnits="userSpaceOnUse">
            <stop stop-color="#4654ad" />
            <stop offset="0.58" stop-color="#5968c9" />
            <stop offset="1" stop-color="#6f7fdd" />
        </linearGradient>
        <linearGradient id="spark-fill" x1="10" x2="23" y1="20" y2="4" gradientUnits="userSpaceOnUse">
            <stop stop-color="#7c61c8" />
            <stop offset="0.62" stop-color="#9972d3" />
            <stop offset="1" stop-color="#dbdaec" />
        </linearGradient>
        <path id="spark-shape" d="M15.52 2.24c.36-1.04 1.84-1.04 2.2 0l1.64 4.68a6.94 6.94 0 0 0 4.24 4.24l4.68 1.64c1.04.36 1.04 1.84 0 2.2l-4.68 1.64a6.94 6.94 0 0 0-4.24 4.24l-1.64 4.68c-.36 1.04-1.84 1.04-2.2 0l-1.64-4.68a6.94 6.94 0 0 0-4.24-4.24L4.96 15c-1.04-.36-1.04-1.84 0-2.2l4.68-1.64a6.94 6.94 0 0 0 4.24-4.24l1.64-4.68Z" />
        <path id="badge-shape" d="M3.2 18.6c0-1.32 1.08-2.4 2.4-2.4h9.3c.98 0 1.9.47 2.47 1.27l1.52 2.12c.57.8 1.49 1.27 2.47 1.27h6.04c1.32 0 2.4 1.08 2.4 2.4v4.34c0 1.32-1.08 2.4-2.4 2.4H5.6c-1.32 0-2.4-1.08-2.4-2.4v-9.2Z" />
        <mask id="base-cutout">
            <rect width="32" height="32" fill="#fff" />
            <use href="#spark-shape" stroke="#000" stroke-width="4.2" />
        </mask>
    </defs>
    <use href="#badge-shape" fill="url(#badge-base)" mask="url(#base-cutout)" />
    <use href="#spark-shape" fill="url(#spark-fill)" />
</svg>
